<?xml version="1.0" encoding="utf-8"?>
<!-- Generator: Adobe Illustrator 21.0.0, SVG Export Plug-In . SVG Version: 6.00 Build 0)  -->
<svg version="1.1" id="Layer_1" xmlns="http://www.w3.org/2000/svg" xmlns:xlink="http://www.w3.org/1999/xlink" x="0px" y="0px"
	 viewBox="0 0 242 241.1" style="enable-background:new 0 0 242 241.1;" xml:space="preserve">
<style type="text/css">
	.st0{fill:#95D5F3;}
	.st1{display:none;fill:#85C2DC;}
	.st2{display:none;fill:#FFFFFF;}
	.st3{clip-path:url(#SVGID_2_);fill:none;stroke:#85C2DC;stroke-width:120;stroke-linejoin:round;stroke-dasharray:12470;}
	.st4{clip-path:url(#SVGID_5_);fill:#95D5F3;}
	.st5{fill:none;}
	.st6{fill:#FFFFFF;}
</style>
<rect id="pwr_back" x="558.6" y="289.4" class="st0" width="600" height="382"/>
<g>
	<path class="st1" d="M56.6,312.6l0.2,6.7c0,0-7.2,1.7-13.2,1.7c-9.6,0-13.7-4.7-13.7-16.1c0-11.3,4.7-17,14-17
		c9.4,0,13.9,4.7,13.9,14.2l-0.6,6.1H38.5c0,3.7,1.7,5,6.4,5C50,313.2,56.6,312.6,56.6,312.6L56.6,312.6z M277.3,312.6l0.2,6.7
		c0,0-7.2,1.7-13.3,1.7c-9.5,0-13.6-4.7-13.6-16.1c0-11.3,4.7-17,14-17c9.4,0,13.8,4.7,13.8,14.2l-0.6,6.1h-18.6c0,3.7,1.7,5,6.4,5
		C270.8,313.2,277.3,312.6,277.3,312.6L277.3,312.6z M223.4,312.6l0.2,6.7c0,0-7.2,1.7-13.3,1.7c-9.5,0-13.6-4.7-13.6-16.1
		c0-11.3,4.7-17,14-17s13.8,4.7,13.8,14.2l-0.6,6.1h-18.6c0,3.7,1.7,5,6.4,5C216.7,313.2,223.4,312.6,223.4,312.6L223.4,312.6z
		 M147.5,304.5c0,9.7-3.5,16.5-14.6,16.5s-14.6-6.8-14.6-16.5c0-9.8,3.5-16.6,14.6-16.6S147.5,294.7,147.5,304.5L147.5,304.5z
		 M-22.2,313.4c4.3,0,4.5-2.5,4.5-8.1v-16.6h8.5v16.6c0,10.9-1.9,15.7-11.1,15.7h-5.2c-9.4,0-11.1-5-11.1-15.7v-16.6h8.5v16.6
		c0,5.6,0.2,8.1,4.5,8.1H-22.2z M81.3,297.1c-3.7,0-8.8,1.1-8.8,1.1v22H64v-31.5h8.5c0,0,5.7-0.8,8.8-0.8V297.1z M248.1,297.1
		c-3.7,0-8.8,1.1-8.8,1.1v22h-8.5v-31.5h8.5c0,0,5.7-0.8,8.8-0.8V297.1z M311.1,320.2h-8.5c0,0-4.3,0.8-7.6,0.8
		c-9.6,0-12.3-5.8-12.3-16.9c0-11.5,4.5-16.2,13-16.2c2.4,0,6.9,0.8,6.9,0.8v-10.9l8.5,1V320.2z M302.8,312.3v-16.2
		c0,0-3.6-0.6-6.3-0.6c-3.1,0-5,2.4-5,8.6c0,6.4,1.1,8.9,5.2,8.9C299.1,313,302.8,312.3,302.8,312.3z M270.1,301.6
		c0-4.5-1.4-6.3-5.5-6.3s-5.4,2-5.4,6.3H270.1z M216.2,301.6c0-4.5-1.4-6.3-5.5-6.3s-5.4,2-5.4,6.3H216.2z M158.2,288.7l3.9,23.9
		h0.3l4.9-23.3h9l4.6,23.3h0.6l3.7-23.9h8.4l-5.9,31.5h-12.4l-3.7-19.2l-3.5,19.2h-12.5l-5.8-31.5H158.2z M138.9,304.5
		c0-5.9-1.4-9-6-9c-4.7,0-6.1,3.1-6.1,9c0,5.8,1.4,8.9,6.1,8.9C137.5,313.4,138.9,310.3,138.9,304.5z M85.8,288.7h8.5
		c0,0,4.1-0.8,7.2-0.8c8.4,0,12.5,4.1,12.5,16.4c0,13.4-4.7,16.9-14.4,16.9c-2.3,0-5.3-0.6-5.3-0.6v11.1l-8.5-1L85.8,288.7
		L85.8,288.7z M94.3,296.9V313c0,0,3,0.4,4.7,0.4c5.1,0,6.4-2.5,6.4-9.1c0-6.4-2.1-8.6-5.4-8.6C97.6,295.7,94.3,296.9,94.3,296.9z
		 M49.2,301.6c0-4.5-1.4-6.3-5.5-6.3c-4,0-5.4,2-5.4,6.3H49.2z M-2.8,288.7h8.6c0,0,4.1-0.8,7.2-0.8c8.4,0,12.5,4.1,12.5,16.4
		c0,13.4-4.7,16.9-14.4,16.9c-2.4,0-5.3-0.6-5.3-0.6v11.1l-8.6-1C-2.8,330.7-2.8,288.7-2.8,288.7z M5.8,296.9V313
		c0,0,2.9,0.4,4.7,0.4c5,0,6.4-2.5,6.4-9.1c0-6.4-2.1-8.6-5.5-8.6C9.1,295.7,5.8,296.9,5.8,296.9z M-44.6,296.5c0,0-7.8-1-11.5-1
		s-4.5,0.8-4.5,2.6c0,1.3,1.2,1.7,6.1,2.5c8.3,1.3,11.1,3.7,11.1,10.1c0,7.4-4.9,10.3-12.9,10.3c-4.6,0-12.4-1.5-12.4-1.5l0.2-7.2
		c0,0,8.1,1.1,11.3,1.1c4,0,5-0.8,5-2.3c0-1.4-0.8-2-5-2.7c-8.2-1.4-11.9-3.3-11.9-10.2c0-7.3,5.6-10.3,12.2-10.3
		c4.5,0,12.3,1.6,12.3,1.6L-44.6,296.5L-44.6,296.5z"/>
	<path id="pwr_txt" class="st2" d="M56.6,308.6l0.2,6.7c0,0-7.2,1.7-13.2,1.7c-9.6,0-13.7-4.7-13.7-16.1c0-11.3,4.7-17,14-17
		c9.4,0,13.9,4.7,13.9,14.2l-0.6,6.1H38.5c0,3.7,1.7,5,6.4,5C50,309.2,56.6,308.6,56.6,308.6L56.6,308.6z M277.3,308.6l0.2,6.7
		c0,0-7.2,1.7-13.3,1.7c-9.5,0-13.6-4.7-13.6-16.1c0-11.3,4.7-17,14-17c9.4,0,13.8,4.7,13.8,14.2l-0.6,6.1h-18.6c0,3.7,1.7,5,6.4,5
		C270.8,309.2,277.3,308.6,277.3,308.6L277.3,308.6z M223.4,308.6l0.2,6.7c0,0-7.2,1.7-13.3,1.7c-9.5,0-13.6-4.7-13.6-16.1
		c0-11.3,4.7-17,14-17s13.8,4.7,13.8,14.2l-0.6,6.1h-18.6c0,3.7,1.7,5,6.4,5C216.7,309.2,223.4,308.6,223.4,308.6L223.4,308.6z
		 M147.5,300.5c0,9.7-3.5,16.5-14.6,16.5s-14.6-6.8-14.6-16.5c0-9.8,3.5-16.6,14.6-16.6S147.5,290.7,147.5,300.5L147.5,300.5z
		 M-22.2,309.4c4.3,0,4.5-2.5,4.5-8.1v-16.6h8.5v16.6c0,10.9-1.9,15.7-11.1,15.7h-5.2c-9.4,0-11.1-5-11.1-15.7v-16.6h8.5v16.6
		c0,5.6,0.2,8.1,4.5,8.1H-22.2z M81.3,293.1c-3.7,0-8.8,1.1-8.8,1.1v22H64v-31.5h8.5c0,0,5.7-0.8,8.8-0.8V293.1z M248.1,293.1
		c-3.7,0-8.8,1.1-8.8,1.1v22h-8.5v-31.5h8.5c0,0,5.7-0.8,8.8-0.8V293.1z M311.1,316.2h-8.5c0,0-4.3,0.8-7.6,0.8
		c-9.6,0-12.3-5.8-12.3-16.9c0-11.5,4.5-16.2,13-16.2c2.4,0,6.9,0.8,6.9,0.8v-10.9l8.5,1V316.2z M302.8,308.3v-16.2
		c0,0-3.6-0.6-6.3-0.6c-3.1,0-5,2.4-5,8.6c0,6.4,1.1,8.9,5.2,8.9C299.1,309,302.8,308.3,302.8,308.3z M270.1,297.6
		c0-4.5-1.4-6.3-5.5-6.3s-5.4,2-5.4,6.3H270.1z M216.2,297.6c0-4.5-1.4-6.3-5.5-6.3s-5.4,2-5.4,6.3H216.2z M158.2,284.7l3.9,23.9
		h0.3l4.9-23.3h9l4.6,23.3h0.6l3.7-23.9h8.4l-5.9,31.5h-12.4l-3.7-19.2l-3.5,19.2h-12.5l-5.8-31.5H158.2z M138.9,300.5
		c0-5.9-1.4-9-6-9c-4.7,0-6.1,3.1-6.1,9c0,5.8,1.4,8.9,6.1,8.9C137.5,309.4,138.9,306.3,138.9,300.5z M85.8,284.7h8.5
		c0,0,4.1-0.8,7.2-0.8c8.4,0,12.5,4.1,12.5,16.4c0,13.4-4.7,16.9-14.4,16.9c-2.3,0-5.3-0.6-5.3-0.6v11.1l-8.5-1L85.8,284.7
		L85.8,284.7z M94.3,292.9V309c0,0,3,0.4,4.7,0.4c5.1,0,6.4-2.5,6.4-9.1c0-6.4-2.1-8.6-5.4-8.6C97.6,291.7,94.3,292.9,94.3,292.9z
		 M49.2,297.6c0-4.5-1.4-6.3-5.5-6.3c-4,0-5.4,2-5.4,6.3H49.2z M-2.8,284.7h8.6c0,0,4.1-0.8,7.2-0.8c8.4,0,12.5,4.1,12.5,16.4
		c0,13.4-4.7,16.9-14.4,16.9c-2.4,0-5.3-0.6-5.3-0.6v11.1l-8.6-1C-2.8,326.7-2.8,284.7-2.8,284.7z M5.8,292.9V309
		c0,0,2.9,0.4,4.7,0.4c5,0,6.4-2.5,6.4-9.1c0-6.4-2.1-8.6-5.5-8.6C9.1,291.7,5.8,292.9,5.8,292.9z M-44.6,292.5c0,0-7.8-1-11.5-1
		s-4.5,0.8-4.5,2.6c0,1.3,1.2,1.7,6.1,2.5c8.3,1.3,11.1,3.7,11.1,10.1c0,7.4-4.9,10.3-12.9,10.3c-4.6,0-12.4-1.5-12.4-1.5l0.2-7.2
		c0,0,8.1,1.1,11.3,1.1c4,0,5-0.8,5-2.3c0-1.4-0.8-2-5-2.7c-8.2-1.4-11.9-3.3-11.9-10.2c0-7.3,5.6-10.3,12.2-10.3
		c4.5,0,12.3,1.6,12.3,1.6L-44.6,292.5L-44.6,292.5z"/>
	
		<animate  accumulate="none" additive="replace" attributeName="opacity" attributeType="CSS" begin="draw_line.end" calcMode="linear" dur="0.5s" fill="remove" restart="always" values="0;1">
		</animate>
	
		<set  attributeName="visibility" attributeType="XML" begin="draw_line.end" fill="remove" from="hidden" restart="always" to="visible">
		</set>
</g>
<g transform="translate(0,40)">
	<g>
		<g>
			<g>
				<defs>
					<path id="SVGID_1_" d="M121-30.1C57.2-30.1,5.4,21.8,5.4,85.5c0,63.8,51.8,115.6,115.6,115.6s115.6-51.8,115.6-115.6
						S184.8-30.1,121-30.1L121-30.1z M121-18.9c57.5,0,104.4,46.9,104.4,104.4c0,8.6-1.1,16.9-3.1,24.8c-0.2,0-0.4,0-0.5,0
						c-6.7,1.9-13.9,2.9-21.6,3c-1.5-2.5-3.4-10.5-4.5-15.3c-3-13-5.5-24.2-14.5-24.2c-8.5,0-11.8,9-14.4,16.2
						c-0.6,1.8-1.6,4.3-2.4,6.1c-1.8-6.8-3.4-20.4-4.5-30.1c-3.6-30.5-5.5-42.8-14.7-42.8S134.3,35.8,130.5,76
						c-0.9,9.8-2.2,22.9-3.6,32.3c-1.1-6.5-2.2-14.8-2.9-21.2c-3.6-28.6-5.5-41.4-14.7-41.4c-9.4,0-11.4,13.2-14.6,35.4
						c-0.9,6.7-2.3,16-3.7,21.6c-1.1-3.4-2.2-8.1-2.8-11.4c-3-13.1-5.5-24.4-14.5-24.4c-9.3,0-11.6,12.4-14.6,27.8
						c-1.1,6-2.9,15.5-4.7,18.6c-8.7-0.3-27-2.6-35.7-9.5c-0.2-0.2-0.4-0.2-0.5-0.2c-1.1-5.9-1.7-11.8-1.7-18.1
						C16.6,28,63.5-18.9,121-18.9L121-18.9z M121,189.9c-45.9,0-85-30-98.9-71.3c12.5,5,27.6,6.3,33.7,6.3
						c9.3,0,11.6-12.4,14.6-27.8c0.9-4.6,2.2-11.3,3.4-15.5c1.3,3.6,2.4,8.7,3.1,12.3c3,13.2,5.5,24.4,14.6,24.4
						c9.3,0,11.4-13.3,14.5-35.5c0.8-5.6,1.9-12.9,3.1-18.6c1.4,7.1,2.5,16.8,3.5,24.3c3.6,28.7,5.4,41.4,14.7,41.4
						c9.2,0,10.9-12.7,14.6-52.8c1-9.9,2.2-22.7,3.6-32.1c1.1,6.9,2.2,15.7,3,22.4c3.6,30.4,5.5,42.8,14.7,42.8
						c8.4,0,11.7-9.1,14.4-16.3c0.7-2.3,2-5.9,2.9-7.6c1.4,3.3,3,10,3.9,14.2c3,13,5.5,24.2,14.6,24.2c6.5,0,13.1-0.6,19.2-1.9
						C203.2,161.9,165.4,189.9,121,189.9z"/>
				</defs>
				<clipPath id="SVGID_2_">
					<use xlink:href="#SVGID_1_"  style="overflow:visible;"/>
				</clipPath>
				<path class="st3" d="M13.4,109C0.4,49.6,38.1-8.9,97.4-21.9C156.8-35,215.6,3.3,228.7,62.7c13,59.3-24.8,117.2-84.1,130.2
					c-59.4,13.1-118-24.1-131-83.4c10.3,5.6,39,12.4,43.8,9.4c6.5-4.2,7-44.7,16.6-45.1s7.5,39.2,17.5,37.6s7.8-59.5,18.3-58.9
					c10.4,0.7,9.7,70.3,17.7,70.1s7.7-92.6,17.8-92.9c10-0.3,10.6,72.3,17.9,74.2c7.3,2,10.9-23.7,18-24c7-0.3,8.8,35,17.1,38.2
					c5,1.9,24.8-3.1,29-4.2				">
<animate  accumulate="none" additive="replace" attributeName="stroke-dashoffset" attributeType="CSS" begin="0s" calcMode="linear" dur="1.5s" fill="remove" from="12470" restart="always" to="0">
						</animate>
				</path>
			</g>
		</g>
	</g>
</g>
<g>
	<g>
		<path id="SVGID_3_" class="st0" d="M121,5.9C57.2,5.9,5.4,57.8,5.4,121.5c0,63.8,51.8,115.6,115.6,115.6s115.6-51.8,115.6-115.6
			S184.8,5.9,121,5.9L121,5.9z M121,17.1c57.5,0,104.4,46.9,104.4,104.4c0,8.6-1.1,16.9-3.1,24.8c-0.2,0-0.4,0-0.5,0
			c-6.7,1.9-13.9,2.9-21.6,3c-1.5-2.5-3.4-10.5-4.5-15.3c-3-13-5.5-24.2-14.5-24.2c-8.5,0-11.8,9-14.4,16.2
			c-0.6,1.8-1.6,4.3-2.4,6.1c-1.8-6.8-3.4-20.4-4.5-30.1c-3.6-30.5-5.5-42.8-14.7-42.8s-10.9,12.6-14.7,52.8
			c-0.9,9.8-2.2,22.9-3.6,32.3c-1.1-6.5-2.2-14.8-2.9-21.2c-3.6-28.6-5.5-41.4-14.7-41.4c-9.4,0-11.4,13.2-14.6,35.4
			c-0.9,6.7-2.3,16-3.7,21.6c-1.1-3.4-2.2-8.1-2.8-11.4c-3-13.1-5.5-24.4-14.5-24.4c-9.3,0-11.6,12.4-14.6,27.8
			c-1.1,6-2.9,15.5-4.7,18.6c-8.7-0.3-27-2.6-35.7-9.5c-0.2-0.2-0.4-0.2-0.5-0.2c-1.1-5.9-1.7-11.8-1.7-18.1
			C16.6,64,63.5,17.1,121,17.1L121,17.1z M121,225.9c-45.9,0-85-30-98.9-71.3c12.5,5,27.6,6.3,33.7,6.3c9.3,0,11.6-12.4,14.6-27.8
			c0.9-4.6,2.2-11.3,3.4-15.5c1.3,3.6,2.4,8.7,3.1,12.3c3,13.2,5.5,24.4,14.6,24.4c9.3,0,11.4-13.3,14.5-35.5
			c0.8-5.6,1.9-12.9,3.1-18.6c1.4,7.1,2.5,16.8,3.5,24.3c3.6,28.7,5.4,41.4,14.7,41.4c9.2,0,10.9-12.7,14.6-52.8
			c1-9.9,2.2-22.7,3.6-32.1c1.1,6.9,2.2,15.7,3,22.4c3.6,30.4,5.5,42.8,14.7,42.8c8.4,0,11.7-9.1,14.4-16.3c0.7-2.3,2-5.9,2.9-7.6
			c1.4,3.3,3,10,3.9,14.2c3,13,5.5,24.2,14.6,24.2c6.5,0,13.1-0.6,19.2-1.9C203.2,197.9,165.4,225.9,121,225.9z"/>
	</g>
	<g>
		<g>
			<defs>
				<path id="SVGID_4_" d="M121,5.9C57.2,5.9,5.4,57.8,5.4,121.5c0,63.8,51.8,115.6,115.6,115.6s115.6-51.8,115.6-115.6
					S184.8,5.9,121,5.9L121,5.9z M121,17.1c57.5,0,104.4,46.9,104.4,104.4c0,8.6-1.1,16.9-3.1,24.8c-0.2,0-0.4,0-0.5,0
					c-6.7,1.9-13.9,2.9-21.6,3c-1.5-2.5-3.4-10.5-4.5-15.3c-3-13-5.5-24.2-14.5-24.2c-8.5,0-11.8,9-14.4,16.2
					c-0.6,1.8-1.6,4.3-2.4,6.1c-1.8-6.8-3.4-20.4-4.5-30.1c-3.6-30.5-5.5-42.8-14.7-42.8s-10.9,12.6-14.7,52.8
					c-0.9,9.8-2.2,22.9-3.6,32.3c-1.1-6.5-2.2-14.8-2.9-21.2c-3.6-28.6-5.5-41.4-14.7-41.4c-9.4,0-11.4,13.2-14.6,35.4
					c-0.9,6.7-2.3,16-3.7,21.6c-1.1-3.4-2.2-8.1-2.8-11.4c-3-13.1-5.5-24.4-14.5-24.4c-9.3,0-11.6,12.4-14.6,27.8
					c-1.1,6-2.9,15.5-4.7,18.6c-8.7-0.3-27-2.6-35.7-9.5c-0.2-0.2-0.4-0.2-0.5-0.2c-1.1-5.9-1.7-11.8-1.7-18.1
					C16.6,64,63.5,17.1,121,17.1L121,17.1z M121,225.9c-45.9,0-85-30-98.9-71.3c12.5,5,27.6,6.3,33.7,6.3c9.3,0,11.6-12.4,14.6-27.8
					c0.9-4.6,2.2-11.3,3.4-15.5c1.3,3.6,2.4,8.7,3.1,12.3c3,13.2,5.5,24.4,14.6,24.4c9.3,0,11.4-13.3,14.5-35.5
					c0.8-5.6,1.9-12.9,3.1-18.6c1.4,7.1,2.5,16.8,3.5,24.3c3.6,28.7,5.4,41.4,14.7,41.4c9.2,0,10.9-12.7,14.6-52.8
					c1-9.9,2.2-22.7,3.6-32.1c1.1,6.9,2.2,15.7,3,22.4c3.6,30.4,5.5,42.8,14.7,42.8c8.4,0,11.7-9.1,14.4-16.3c0.7-2.3,2-5.9,2.9-7.6
					c1.4,3.3,3,10,3.9,14.2c3,13,5.5,24.2,14.6,24.2c6.5,0,13.1-0.6,19.2-1.9C203.2,197.9,165.4,225.9,121,225.9z"/>
			</defs>
			<clipPath id="SVGID_5_">
				<use xlink:href="#SVGID_4_"  style="overflow:visible;"/>
			</clipPath>
			<path id="pwr_draw_line" class="st4" d="M13.4,145c-13-59.4,24.7-117.9,84-130.9C156.8,1,215.6,39.3,228.7,98.7
				c13,59.3-24.8,117.2-84.1,130.2c-59.4,13.1-118-24.1-131-83.4c10.3,5.6,39,12.4,43.8,9.4c6.5-4.2,7-44.7,16.6-45.1
				s7.5,39.2,17.5,37.6s7.8-59.5,18.3-58.9c10.4,0.7,9.7,70.3,17.7,70.1s7.7-92.6,17.8-92.9c10-0.3,10.6,72.3,17.9,74.2
				c7.3,2,10.9-23.7,18-24c7-0.3,8.8,35,17.1,38.2c5,1.9,24.8-3.1,29-4.2			">
<animate  accumulate="none" additive="replace" attributeName="stroke-dashoffset" attributeType="CSS" begin="0s" calcMode="linear" dur="1.5s" fill="remove" from="12470" id="draw_line" restart="always" to="0">
					</animate>
			</path>
		</g>
	</g>
</g>
<path id="pwr_mpth" class="st5" d="M13.4,145c-13-59.4,24.7-117.9,84-130.9C156.8,1,215.6,39.3,228.7,98.7
	c13,59.3-24.8,117.2-84.1,130.2c-59.4,13.1-118-24.1-131-83.4c10.3,5.6,39,12.4,43.8,9.4c6.5-4.2,7-44.7,16.6-45.1
	s7.5,39.2,17.5,37.6s7.8-59.5,18.3-58.9c10.4,0.7,9.7,70.3,17.7,70.1s7.7-92.6,17.8-92.9c10-0.3,10.6,72.3,17.9,74.2
	c7.3,2,10.9-23.7,18-24c7-0.3,8.8,35,17.1,38.2c5,1.9,24.8-3.1,29-4.2"/>
<circle id="pwr_rnd" class="st6" cx="-27.7" cy="-19.1" r="14.5">
<animateMotion  accumulate="none" additive="replace" begin="draw_line.begin" calcMode="paced" dur="1.5s" fill="freeze" repeatCount="1" restart="always">
	<mpath  xlink:href="#pwr_mpth"></mpath>
</animateMotion>
<animateTransform  accumulate="none" additive="replace" attributeName="transform" attributeType="XML" begin="draw_line.end" calcMode="linear" dur="0.5s" fill="freeze" id="pwr_rnd_hide" restart="always" type="translate" values="0 0;10 10">
	</animateTransform>
<animateTransform  accumulate="none" additive="sum" attributeName="transform" attributeType="XML" begin="pwr_rnd_hide.begin" calcMode="linear" dur="0.5s" fill="freeze" restart="always" type="scale" values="1 1; 0 0">
	</animateTransform>
</circle>
</svg>
