<?xml version="1.0" encoding="utf-8"?>
<!-- Generator: Adobe Illustrator 16.0.0, SVG Export Plug-In . SVG Version: 6.00 Build 0)  -->
<!DOCTYPE svg PUBLIC "-//W3C//DTD SVG 1.1//EN" "http://www.w3.org/Graphics/SVG/1.1/DTD/svg11.dtd">
<svg version="1.1" id="Layer_1" xmlns="http://www.w3.org/2000/svg" xmlns:xlink="http://www.w3.org/1999/xlink" x="0px" y="0px"
	 width="217px" height="138px" viewBox="0 0 216.3 137.6" enable-background="new 0 0 216.3 137.6" xml:space="preserve">
<g enable-background="new    ">
	<path fill="#FFFFFF" d="M47.089,102.949c0,4.961-1.758,9.199-5.273,12.715s-7.754,5.273-12.715,5.273
		c-4.961,0-9.199-1.758-12.715-5.273s-5.273-7.754-5.273-12.715V84.024h12.012v18.926c0,1.68,0.576,3.105,1.729,4.277
		c1.152,1.172,2.568,1.758,4.248,1.758c1.679,0,3.105-0.586,4.277-1.758s1.758-2.598,1.758-4.277V87.246
		c0-1.913-0.723-3.437-2.168-4.57L18.319,71.543c-4.805-3.711-7.207-8.516-7.207-14.414V41.016c0-4.96,1.758-9.199,5.273-12.715
		s7.753-5.273,12.715-5.273c4.96,0,9.199,1.758,12.715,5.273s5.273,7.755,5.273,12.715V60H35.136V41.016
		c0-1.679-0.586-3.096-1.758-4.248c-1.172-1.151-2.598-1.729-4.277-1.729c-1.68,0-3.096,0.577-4.248,1.729
		c-1.153,1.152-1.729,2.569-1.729,4.248v16.113c0,1.992,0.8,3.595,2.402,4.805l14.648,11.133c4.609,3.516,6.914,8.242,6.914,14.18
		V102.949z"/>
	<path fill="#FFFFFF" d="M69.296,70.078V120H57.284V24.024h5.977l18.047,46.758l17.988-46.758h5.977V120H93.261V70.078
		l-11.953,34.336L69.296,70.078z"/>
	<path fill="#FFFFFF" d="M152.031,102.012c0,4.961-1.758,9.199-5.273,12.715S139.002,120,134.042,120h-17.988V24.024h17.988
		c4.96,0,9.199,1.758,12.715,5.273s5.273,7.755,5.273,12.715V60c0,6.094-1.992,10.099-5.977,12.012
		c1.992,0.625,3.554,2.306,4.688,5.039c0.858,2.148,1.289,4.474,1.289,6.973V102.012z M140.078,60V42.012
		c0-1.679-0.586-3.105-1.758-4.277s-2.599-1.758-4.277-1.758h-5.977v30h5.977c1.679,0,3.105-0.576,4.277-1.729
		C139.492,63.097,140.078,61.68,140.078,60z M140.078,102.012V84.024c0-1.679-0.586-3.105-1.758-4.277s-2.599-1.758-4.277-1.758
		h-5.977v30h5.977c1.679,0,3.105-0.576,4.277-1.729C139.492,105.109,140.078,103.692,140.078,102.012z"/>
	<path fill="#FFFFFF" d="M206.757,120h-14.063l-17.871-33.457V120h-12.012V24.024h12.012v28.301l15-28.301h13.652l-23.73,45
		L206.757,120z"/>
</g>
</svg>
